<?xml version="1.0" encoding="UTF-8"?>
<svg xmlns="http://www.w3.org/2000/svg" xmlns:xlink="http://www.w3.org/1999/xlink" width="32px" height="32px" viewBox="0 0 32 32" version="1.1">
<g id="surface1">
<path style=" stroke:none;fill-rule:nonzero;fill:rgb(0%,0%,0%);fill-opacity:1;" d="M 9.792969 5.320312 C 10.898438 3.09375 13.082031 1.714844 15.523438 1.484375 C 18.179688 1.449219 20.128906 2.359375 21.734375 4.492188 C 21.929688 4.75 22.128906 5.011719 22.234375 5.320312 C 22.488281 5.046875 22.804688 4.863281 23.125 4.679688 C 24.753906 3.742188 25.796875 3.816406 27.632812 3.816406 L 30.421875 3.816406 C 30.480469 4.246094 30.421875 5.128906 30.421875 5.597656 L 30.421875 19.347656 C 30.421875 21.558594 30.140625 24.335938 28.167969 25.714844 C 26.882812 26.609375 23.542969 27.15625 21.8125 27.429688 C 19.875 27.734375 17.582031 28.070312 17.421875 30.390625 C 16.996094 30.417969 16.554688 30.390625 16.128906 30.390625 C 16.195312 28.886719 16.296875 27.949219 16.53125 26.464844 L 18.753906 12.453125 C 19.066406 10.433594 19.988281 7.625 18.640625 5.890625 C 18.054688 5.136719 17.242188 4.695312 16.300781 4.578125 C 15.308594 4.492188 14.367188 4.867188 13.664062 5.570312 C 12.492188 6.746094 12.550781 8.0625 12.769531 9.574219 C 13.117188 11.972656 13.542969 14.382812 13.941406 16.773438 L 15.019531 23.390625 C 15.179688 24.339844 15.332031 25.296875 15.511719 26.242188 C 15.832031 27.914062 15.953125 28.671875 15.953125 30.390625 L 14.734375 30.390625 C 14.515625 27.996094 11.558594 27.667969 9.703125 27.339844 C 5.625 26.625 2.53125 26.484375 1.691406 21.695312 C 1.53125 20.773438 1.570312 19.835938 1.570312 18.902344 L 1.570312 3.816406 C 1.757812 3.84375 1.957031 3.820312 2.144531 3.820312 L 5.03125 3.816406 C 7.417969 3.816406 7.925781 4.082031 9.792969 5.320312 Z M 4.332031 6.640625 C 2.898438 8.144531 4.34375 10.386719 5.140625 11.828125 C 5.347656 12.199219 5.546875 12.578125 5.761719 12.941406 L 7.238281 15.492188 C 7.472656 15.886719 7.71875 16.273438 7.957031 16.664062 L 10.09375 20.238281 C 11.269531 22.195312 12.464844 24.140625 13.742188 26.03125 C 13.875 26.230469 14.007812 26.433594 14.152344 26.625 C 14.128906 26.488281 14.0625 26.347656 14.015625 26.21875 L 13.671875 25.289062 C 12.851562 23.035156 12.097656 20.644531 11.390625 18.355469 L 10.441406 15.265625 C 9.957031 13.65625 8.488281 8.992188 8.953125 7.59375 C 8.710938 7.4375 8.488281 7.238281 8.257812 7.066406 C 7.195312 6.265625 5.457031 5.574219 4.332031 6.640625 Z M 4.402344 17.09375 C 4.417969 17.316406 4.402344 17.546875 4.402344 17.769531 L 4.398438 19.246094 C 4.394531 21.613281 4.726562 22.042969 6.605469 23.242188 C 8.585938 24.503906 10.730469 25.511719 12.65625 26.859375 C 12.804688 26.960938 12.949219 27.078125 13.097656 27.175781 C 12.980469 26.992188 12.789062 26.824219 12.640625 26.660156 L 9.832031 23.550781 C 8.046875 21.5625 6.28125 19.539062 4.644531 17.425781 C 4.582031 17.351562 4.46875 17.136719 4.402344 17.09375 Z M 18.980469 27.21875 C 20.839844 25.8125 22.6875 24.882812 24.667969 23.699219 C 27.042969 22.277344 27.613281 21.992188 27.613281 19.039062 C 27.613281 18.390625 27.605469 17.742188 27.613281 17.09375 C 27.5625 17.074219 27.335938 17.417969 27.292969 17.476562 C 26.464844 18.566406 25.460938 19.789062 24.554688 20.828125 L 20.542969 25.410156 C 20.023438 26.015625 19.472656 26.589844 18.980469 27.21875 Z M 25.902344 6.109375 C 25.054688 6.109375 23.683594 6.847656 23.101562 7.503906 C 23.101562 7.753906 23.128906 8.003906 23.140625 8.257812 C 23.1875 9.234375 22.949219 10.160156 22.707031 11.101562 C 22.050781 13.667969 21.273438 16.207031 20.476562 18.734375 L 19.96875 20.394531 C 19.296875 22.546875 18.410156 24.710938 17.804688 26.863281 C 18.140625 26.386719 18.421875 25.867188 18.742188 25.378906 C 20.582031 22.535156 22.324219 19.625 24.039062 16.699219 L 26.027344 13.292969 C 26.703125 12.128906 27.652344 10.519531 28.101562 9.304688 C 28.472656 8.289062 28.300781 7.027344 27.324219 6.402344 C 27 6.195312 26.277344 5.941406 25.902344 6.109375 Z M 25.902344 6.109375 "/>
</g>
</svg>
