<?xml version="1.0" encoding="UTF-8"?>
<svg xmlns="http://www.w3.org/2000/svg" xmlns:xlink="http://www.w3.org/1999/xlink" width="48px" height="48px" viewBox="0 0 48 48" version="1.1">
<g id="surface1">
<path style=" stroke:none;fill-rule:nonzero;fill:rgb(0%,0%,0%);fill-opacity:1;" d="M 14.6875 7.980469 C 16.351562 4.640625 19.625 2.570312 23.285156 2.226562 C 27.269531 2.171875 30.191406 3.542969 32.601562 6.734375 C 32.894531 7.125 33.195312 7.519531 33.355469 7.980469 C 33.734375 7.570312 34.210938 7.296875 34.691406 7.019531 C 37.128906 5.609375 38.691406 5.726562 41.449219 5.726562 L 45.632812 5.726562 C 45.71875 6.367188 45.632812 7.691406 45.632812 8.394531 L 45.632812 29.023438 C 45.632812 32.339844 45.210938 36.503906 42.25 38.570312 C 40.324219 39.917969 35.316406 40.730469 32.714844 41.144531 C 29.8125 41.605469 26.371094 42.105469 26.136719 45.582031 C 25.496094 45.625 24.832031 45.582031 24.191406 45.582031 C 24.292969 43.328125 24.445312 41.925781 24.796875 39.695312 L 28.132812 18.683594 C 28.601562 15.648438 29.980469 11.441406 27.960938 8.835938 C 27.085938 7.703125 25.863281 7.042969 24.449219 6.867188 C 22.960938 6.738281 21.550781 7.300781 20.496094 8.355469 C 18.738281 10.121094 18.824219 12.09375 19.15625 14.363281 C 19.675781 17.960938 20.316406 21.574219 20.910156 25.160156 L 22.53125 35.085938 C 22.769531 36.511719 23 37.945312 23.269531 39.367188 C 23.746094 41.871094 23.933594 43.003906 23.929688 45.582031 L 22.105469 45.582031 C 21.777344 41.996094 17.339844 41.5 14.558594 41.011719 C 8.4375 39.9375 3.796875 39.730469 2.539062 32.542969 C 2.296875 31.15625 2.355469 29.757812 2.355469 28.355469 L 2.355469 5.726562 C 2.632812 5.769531 2.933594 5.730469 3.21875 5.726562 L 7.546875 5.726562 C 11.125 5.726562 11.890625 6.125 14.6875 7.980469 Z M 6.496094 9.964844 C 4.347656 12.21875 6.511719 15.578125 7.710938 17.742188 C 8.019531 18.300781 8.316406 18.867188 8.640625 19.414062 L 10.859375 23.238281 C 11.207031 23.832031 11.578125 24.410156 11.933594 25 L 15.140625 30.359375 C 16.90625 33.292969 18.695312 36.210938 20.613281 39.046875 C 20.816406 39.34375 21.011719 39.652344 21.230469 39.9375 C 21.195312 39.734375 21.09375 39.519531 21.023438 39.324219 L 20.511719 37.9375 C 19.277344 34.550781 18.144531 30.96875 17.082031 27.53125 L 15.660156 22.898438 C 14.933594 20.484375 12.734375 13.492188 13.433594 11.390625 C 13.066406 11.15625 12.734375 10.859375 12.382812 10.597656 C 10.792969 9.398438 8.183594 8.359375 6.496094 9.964844 Z M 6.601562 25.640625 C 6.628906 25.972656 6.601562 26.320312 6.601562 26.652344 L 6.601562 28.867188 C 6.589844 32.417969 7.085938 33.066406 9.910156 34.863281 C 12.882812 36.757812 16.09375 38.269531 18.984375 40.289062 C 19.207031 40.445312 19.421875 40.613281 19.648438 40.765625 C 19.472656 40.492188 19.183594 40.234375 18.960938 39.992188 L 14.75 35.328125 C 12.070312 32.347656 9.421875 29.308594 6.964844 26.140625 C 6.875 26.027344 6.703125 25.707031 6.601562 25.640625 Z M 28.46875 40.828125 C 31.257812 38.714844 34.03125 37.324219 37 35.550781 C 40.566406 33.414062 41.421875 32.988281 41.417969 28.558594 C 41.417969 27.585938 41.410156 26.613281 41.417969 25.640625 C 41.34375 25.609375 41.003906 26.128906 40.941406 26.214844 C 39.699219 27.847656 38.191406 29.683594 36.832031 31.246094 L 30.816406 38.117188 C 30.03125 39.019531 29.207031 39.882812 28.46875 40.828125 Z M 38.855469 9.164062 C 37.585938 9.164062 35.527344 10.273438 34.65625 11.253906 C 34.652344 11.632812 34.695312 12.007812 34.714844 12.386719 C 34.785156 13.855469 34.421875 15.238281 34.0625 16.652344 C 33.078125 20.503906 31.914062 24.308594 30.714844 28.101562 L 29.953125 30.589844 C 28.941406 33.820312 27.617188 37.0625 26.707031 40.296875 C 27.210938 39.582031 27.632812 38.804688 28.109375 38.070312 C 30.871094 33.800781 33.488281 29.441406 36.054688 25.050781 L 39.039062 19.941406 C 40.050781 18.191406 41.480469 15.78125 42.152344 13.957031 C 42.710938 12.433594 42.449219 10.539062 40.984375 9.601562 C 40.5 9.292969 39.417969 8.910156 38.855469 9.164062 Z M 38.855469 9.164062 "/>
</g>
</svg>
